<mxfile host="app.diagrams.net" agent="Mozilla/5.0 (Macintosh; Intel Mac OS X 10_15_7) AppleWebKit/537.36 (KHTML, like Gecko) Chrome/137.0.0.0 Safari/537.36" version="27.1.4">
  <diagram name="Page-1" id="Cto6OaabjmtUq3Y8RWJJ">
    <mxGraphModel dx="1351" dy="1046" grid="1" gridSize="10" guides="1" tooltips="1" connect="1" arrows="1" fold="1" page="1" pageScale="1" pageWidth="827" pageHeight="1169" math="0" shadow="0">
      <root>
        <mxCell id="0" />
        <mxCell id="1" parent="0" />
        <mxCell id="txpCUzkVClCZkRIic5J1-1" value="Actor" style="shape=umlActor;verticalLabelPosition=bottom;verticalAlign=top;html=1;outlineConnect=0;" vertex="1" parent="1">
          <mxGeometry x="120" y="80" width="30" height="60" as="geometry" />
        </mxCell>
        <mxCell id="txpCUzkVClCZkRIic5J1-5" value="Mes" style="rounded=0;whiteSpace=wrap;html=1;" vertex="1" parent="1">
          <mxGeometry x="240" y="80" width="120" height="60" as="geometry" />
        </mxCell>
        <mxCell id="txpCUzkVClCZkRIic5J1-6" value="Cache" style="rounded=0;whiteSpace=wrap;html=1;" vertex="1" parent="1">
          <mxGeometry x="460" y="80" width="120" height="60" as="geometry" />
        </mxCell>
        <mxCell id="txpCUzkVClCZkRIic5J1-9" value="" style="rounded=0;whiteSpace=wrap;html=1;fillColor=#fa6800;strokeColor=#C73500;fontColor=#000000;" vertex="1" parent="1">
          <mxGeometry x="130" y="180" width="10" height="160" as="geometry" />
        </mxCell>
        <mxCell id="txpCUzkVClCZkRIic5J1-18" style="edgeStyle=orthogonalEdgeStyle;rounded=0;orthogonalLoop=1;jettySize=auto;html=1;" edge="1" parent="1">
          <mxGeometry relative="1" as="geometry">
            <mxPoint x="520" y="240" as="targetPoint" />
            <mxPoint x="304.9999999999999" y="240.0344827586207" as="sourcePoint" />
          </mxGeometry>
        </mxCell>
        <mxCell id="txpCUzkVClCZkRIic5J1-19" value="order list" style="edgeLabel;html=1;align=center;verticalAlign=middle;resizable=0;points=[];" vertex="1" connectable="0" parent="txpCUzkVClCZkRIic5J1-18">
          <mxGeometry x="-0.0066" y="3" relative="1" as="geometry">
            <mxPoint as="offset" />
          </mxGeometry>
        </mxCell>
        <mxCell id="txpCUzkVClCZkRIic5J1-14" value="" style="edgeStyle=none;orthogonalLoop=1;jettySize=auto;html=1;rounded=0;" edge="1" parent="1">
          <mxGeometry width="100" relative="1" as="geometry">
            <mxPoint x="140" y="210" as="sourcePoint" />
            <mxPoint x="290" y="210" as="targetPoint" />
            <Array as="points" />
          </mxGeometry>
        </mxCell>
        <mxCell id="txpCUzkVClCZkRIic5J1-17" value="read order list" style="edgeLabel;html=1;align=center;verticalAlign=middle;resizable=0;points=[];" vertex="1" connectable="0" parent="txpCUzkVClCZkRIic5J1-14">
          <mxGeometry x="-0.0244" y="-1" relative="1" as="geometry">
            <mxPoint as="offset" />
          </mxGeometry>
        </mxCell>
        <mxCell id="txpCUzkVClCZkRIic5J1-23" value="" style="endArrow=classic;html=1;rounded=0;" edge="1" parent="1">
          <mxGeometry width="50" height="50" relative="1" as="geometry">
            <mxPoint x="519" y="254.57" as="sourcePoint" />
            <mxPoint x="309" y="254.57" as="targetPoint" />
          </mxGeometry>
        </mxCell>
        <mxCell id="txpCUzkVClCZkRIic5J1-24" value="&amp;nbsp;cached order list" style="edgeLabel;html=1;align=center;verticalAlign=middle;resizable=0;points=[];" vertex="1" connectable="0" parent="txpCUzkVClCZkRIic5J1-23">
          <mxGeometry x="-0.2317" y="-3" relative="1" as="geometry">
            <mxPoint x="-25" as="offset" />
          </mxGeometry>
        </mxCell>
        <mxCell id="txpCUzkVClCZkRIic5J1-25" value="" style="endArrow=classic;html=1;rounded=0;" edge="1" parent="1">
          <mxGeometry width="50" height="50" relative="1" as="geometry">
            <mxPoint x="290" y="310" as="sourcePoint" />
            <mxPoint x="140" y="310" as="targetPoint" />
          </mxGeometry>
        </mxCell>
        <mxCell id="txpCUzkVClCZkRIic5J1-26" value="&amp;nbsp;order list" style="edgeLabel;html=1;align=center;verticalAlign=middle;resizable=0;points=[];" vertex="1" connectable="0" parent="txpCUzkVClCZkRIic5J1-25">
          <mxGeometry x="-0.2317" y="-3" relative="1" as="geometry">
            <mxPoint x="-25" as="offset" />
          </mxGeometry>
        </mxCell>
        <mxCell id="txpCUzkVClCZkRIic5J1-10" value="" style="rounded=0;whiteSpace=wrap;html=1;fillColor=#fa6800;strokeColor=#C73500;fontColor=#000000;" vertex="1" parent="1">
          <mxGeometry x="295" y="180" width="10" height="140" as="geometry" />
        </mxCell>
        <mxCell id="txpCUzkVClCZkRIic5J1-45" style="edgeStyle=orthogonalEdgeStyle;rounded=0;orthogonalLoop=1;jettySize=auto;html=1;" edge="1" parent="1">
          <mxGeometry relative="1" as="geometry">
            <mxPoint x="710" y="270" as="targetPoint" />
            <mxPoint x="525" y="270.0434782608695" as="sourcePoint" />
          </mxGeometry>
        </mxCell>
        <mxCell id="txpCUzkVClCZkRIic5J1-46" value="get order i&lt;span style=&quot;background-color: light-dark(#ffffff, var(--ge-dark-color, #121212)); color: light-dark(rgb(0, 0, 0), rgb(255, 255, 255));&quot;&gt;f cache missed&lt;/span&gt;" style="edgeLabel;html=1;align=center;verticalAlign=middle;resizable=0;points=[];" vertex="1" connectable="0" parent="txpCUzkVClCZkRIic5J1-45">
          <mxGeometry x="0.2268" y="-3" relative="1" as="geometry">
            <mxPoint x="-18" y="-8" as="offset" />
          </mxGeometry>
        </mxCell>
        <mxCell id="txpCUzkVClCZkRIic5J1-28" value="" style="rounded=0;whiteSpace=wrap;html=1;fillColor=#fa6800;strokeColor=#C73500;fontColor=#000000;" vertex="1" parent="1">
          <mxGeometry x="515" y="210" width="10" height="100" as="geometry" />
        </mxCell>
        <mxCell id="txpCUzkVClCZkRIic5J1-33" style="edgeStyle=orthogonalEdgeStyle;rounded=0;orthogonalLoop=1;jettySize=auto;html=1;" edge="1" parent="1">
          <mxGeometry relative="1" as="geometry">
            <mxPoint x="300" y="390" as="targetPoint" />
            <mxPoint x="140" y="390" as="sourcePoint" />
          </mxGeometry>
        </mxCell>
        <mxCell id="txpCUzkVClCZkRIic5J1-34" value="update order" style="edgeLabel;html=1;align=center;verticalAlign=middle;resizable=0;points=[];" vertex="1" connectable="0" parent="txpCUzkVClCZkRIic5J1-33">
          <mxGeometry x="0.0014" y="1" relative="1" as="geometry">
            <mxPoint as="offset" />
          </mxGeometry>
        </mxCell>
        <mxCell id="txpCUzkVClCZkRIic5J1-31" value="" style="rounded=0;whiteSpace=wrap;html=1;fillColor=#fa6800;strokeColor=#C73500;fontColor=#000000;" vertex="1" parent="1">
          <mxGeometry x="130" y="370" width="10" height="150" as="geometry" />
        </mxCell>
        <mxCell id="txpCUzkVClCZkRIic5J1-35" value="DB" style="rounded=0;whiteSpace=wrap;html=1;" vertex="1" parent="1">
          <mxGeometry x="650" y="80" width="120" height="60" as="geometry" />
        </mxCell>
        <mxCell id="txpCUzkVClCZkRIic5J1-39" style="edgeStyle=orthogonalEdgeStyle;rounded=0;orthogonalLoop=1;jettySize=auto;html=1;" edge="1" parent="1" source="txpCUzkVClCZkRIic5J1-37">
          <mxGeometry relative="1" as="geometry">
            <mxPoint x="520" y="415" as="targetPoint" />
            <Array as="points">
              <mxPoint x="413" y="415" />
              <mxPoint x="413" y="416" />
              <mxPoint x="520" y="416" />
            </Array>
          </mxGeometry>
        </mxCell>
        <mxCell id="txpCUzkVClCZkRIic5J1-51" value="update order" style="edgeLabel;html=1;align=center;verticalAlign=middle;resizable=0;points=[];" vertex="1" connectable="0" parent="txpCUzkVClCZkRIic5J1-39">
          <mxGeometry x="-0.0131" y="-1" relative="1" as="geometry">
            <mxPoint as="offset" />
          </mxGeometry>
        </mxCell>
        <mxCell id="txpCUzkVClCZkRIic5J1-37" value="" style="rounded=0;whiteSpace=wrap;html=1;fillColor=#fa6800;strokeColor=#C73500;fontColor=#000000;" vertex="1" parent="1">
          <mxGeometry x="295" y="370" width="10" height="150" as="geometry" />
        </mxCell>
        <mxCell id="txpCUzkVClCZkRIic5J1-42" style="edgeStyle=orthogonalEdgeStyle;rounded=0;orthogonalLoop=1;jettySize=auto;html=1;" edge="1" parent="1">
          <mxGeometry relative="1" as="geometry">
            <mxPoint x="705" y="490" as="targetPoint" />
            <mxPoint x="520" y="490" as="sourcePoint" />
          </mxGeometry>
        </mxCell>
        <mxCell id="txpCUzkVClCZkRIic5J1-52" value="update order" style="edgeLabel;html=1;align=center;verticalAlign=middle;resizable=0;points=[];" vertex="1" connectable="0" parent="txpCUzkVClCZkRIic5J1-42">
          <mxGeometry x="-0.341" y="-1" relative="1" as="geometry">
            <mxPoint as="offset" />
          </mxGeometry>
        </mxCell>
        <mxCell id="txpCUzkVClCZkRIic5J1-56" style="edgeStyle=orthogonalEdgeStyle;rounded=0;orthogonalLoop=1;jettySize=auto;html=1;entryX=1.388;entryY=0.441;entryDx=0;entryDy=0;entryPerimeter=0;" edge="1" parent="1">
          <mxGeometry relative="1" as="geometry">
            <mxPoint x="521.94" y="465.87" as="targetPoint" />
            <mxPoint x="520" y="424.13" as="sourcePoint" />
            <Array as="points">
              <mxPoint x="540" y="424.13" />
              <mxPoint x="540" y="465.13" />
              <mxPoint x="523" y="465.13" />
            </Array>
          </mxGeometry>
        </mxCell>
        <mxCell id="txpCUzkVClCZkRIic5J1-57" value="invalidate cache" style="edgeLabel;html=1;align=center;verticalAlign=middle;resizable=0;points=[];" vertex="1" connectable="0" parent="txpCUzkVClCZkRIic5J1-56">
          <mxGeometry x="0.0455" relative="1" as="geometry">
            <mxPoint x="40" y="-1" as="offset" />
          </mxGeometry>
        </mxCell>
        <mxCell id="txpCUzkVClCZkRIic5J1-40" value="" style="rounded=0;whiteSpace=wrap;html=1;fillColor=#fa6800;strokeColor=#C73500;fontColor=#000000;" vertex="1" parent="1">
          <mxGeometry x="515" y="400" width="5" height="140" as="geometry" />
        </mxCell>
        <mxCell id="txpCUzkVClCZkRIic5J1-43" value="" style="rounded=0;whiteSpace=wrap;html=1;fillColor=#fa6800;strokeColor=#C73500;fontColor=#000000;" vertex="1" parent="1">
          <mxGeometry x="705" y="460" width="10" height="90" as="geometry" />
        </mxCell>
        <mxCell id="txpCUzkVClCZkRIic5J1-47" value="" style="endArrow=classic;html=1;rounded=0;" edge="1" parent="1">
          <mxGeometry width="50" height="50" relative="1" as="geometry">
            <mxPoint x="705" y="290" as="sourcePoint" />
            <mxPoint x="525" y="290" as="targetPoint" />
          </mxGeometry>
        </mxCell>
        <mxCell id="txpCUzkVClCZkRIic5J1-48" value="order list" style="edgeLabel;html=1;align=center;verticalAlign=middle;resizable=0;points=[];" vertex="1" connectable="0" parent="txpCUzkVClCZkRIic5J1-47">
          <mxGeometry x="0.3087" y="-1" relative="1" as="geometry">
            <mxPoint x="27" as="offset" />
          </mxGeometry>
        </mxCell>
        <mxCell id="txpCUzkVClCZkRIic5J1-49" value="" style="endArrow=classic;html=1;rounded=0;" edge="1" parent="1">
          <mxGeometry width="50" height="50" relative="1" as="geometry">
            <mxPoint x="515" y="300" as="sourcePoint" />
            <mxPoint x="310" y="300" as="targetPoint" />
          </mxGeometry>
        </mxCell>
        <mxCell id="txpCUzkVClCZkRIic5J1-50" value="order list" style="edgeLabel;html=1;align=center;verticalAlign=middle;resizable=0;points=[];" vertex="1" connectable="0" parent="txpCUzkVClCZkRIic5J1-49">
          <mxGeometry x="0.3087" y="-1" relative="1" as="geometry">
            <mxPoint x="27" as="offset" />
          </mxGeometry>
        </mxCell>
        <mxCell id="txpCUzkVClCZkRIic5J1-60" style="edgeStyle=orthogonalEdgeStyle;rounded=0;orthogonalLoop=1;jettySize=auto;html=1;entryX=1.15;entryY=0.957;entryDx=0;entryDy=0;entryPerimeter=0;" edge="1" parent="1">
          <mxGeometry relative="1" as="geometry">
            <mxPoint x="704.25" y="520" as="sourcePoint" />
            <mxPoint x="520" y="520" as="targetPoint" />
            <Array as="points">
              <mxPoint x="704.25" y="520" />
            </Array>
          </mxGeometry>
        </mxCell>
        <mxCell id="txpCUzkVClCZkRIic5J1-61" value="updated order" style="edgeLabel;html=1;align=center;verticalAlign=middle;resizable=0;points=[];" vertex="1" connectable="0" parent="txpCUzkVClCZkRIic5J1-60">
          <mxGeometry x="-0.0991" relative="1" as="geometry">
            <mxPoint as="offset" />
          </mxGeometry>
        </mxCell>
        <mxCell id="txpCUzkVClCZkRIic5J1-62" style="edgeStyle=orthogonalEdgeStyle;rounded=0;orthogonalLoop=1;jettySize=auto;html=1;" edge="1" parent="1">
          <mxGeometry relative="1" as="geometry">
            <mxPoint x="515" y="500" as="sourcePoint" />
            <mxPoint x="310" y="500" as="targetPoint" />
            <Array as="points">
              <mxPoint x="515" y="500" />
            </Array>
          </mxGeometry>
        </mxCell>
        <mxCell id="txpCUzkVClCZkRIic5J1-63" value="updated order" style="edgeLabel;html=1;align=center;verticalAlign=middle;resizable=0;points=[];" vertex="1" connectable="0" parent="txpCUzkVClCZkRIic5J1-62">
          <mxGeometry x="-0.0991" relative="1" as="geometry">
            <mxPoint as="offset" />
          </mxGeometry>
        </mxCell>
        <mxCell id="txpCUzkVClCZkRIic5J1-66" style="edgeStyle=orthogonalEdgeStyle;rounded=0;orthogonalLoop=1;jettySize=auto;html=1;" edge="1" parent="1">
          <mxGeometry relative="1" as="geometry">
            <mxPoint x="295" y="500" as="sourcePoint" />
            <mxPoint x="135" y="500" as="targetPoint" />
            <Array as="points">
              <mxPoint x="295" y="500" />
            </Array>
          </mxGeometry>
        </mxCell>
        <mxCell id="txpCUzkVClCZkRIic5J1-67" value="updated order" style="edgeLabel;html=1;align=center;verticalAlign=middle;resizable=0;points=[];" vertex="1" connectable="0" parent="txpCUzkVClCZkRIic5J1-66">
          <mxGeometry x="-0.0991" relative="1" as="geometry">
            <mxPoint as="offset" />
          </mxGeometry>
        </mxCell>
        <mxCell id="txpCUzkVClCZkRIic5J1-68" value="" style="endArrow=none;dashed=1;html=1;dashPattern=1 3;strokeWidth=2;rounded=0;entryX=0.5;entryY=1;entryDx=0;entryDy=0;exitX=0.48;exitY=-0.031;exitDx=0;exitDy=0;exitPerimeter=0;" edge="1" parent="1" source="txpCUzkVClCZkRIic5J1-10" target="txpCUzkVClCZkRIic5J1-5">
          <mxGeometry width="50" height="50" relative="1" as="geometry">
            <mxPoint x="420" y="320" as="sourcePoint" />
            <mxPoint x="470" y="270" as="targetPoint" />
          </mxGeometry>
        </mxCell>
        <mxCell id="txpCUzkVClCZkRIic5J1-69" value="" style="endArrow=none;dashed=1;html=1;dashPattern=1 3;strokeWidth=2;rounded=0;entryX=0.5;entryY=1;entryDx=0;entryDy=0;exitX=0.5;exitY=0;exitDx=0;exitDy=0;" edge="1" parent="1" source="txpCUzkVClCZkRIic5J1-28" target="txpCUzkVClCZkRIic5J1-6">
          <mxGeometry width="50" height="50" relative="1" as="geometry">
            <mxPoint x="420" y="320" as="sourcePoint" />
            <mxPoint x="500" y="160" as="targetPoint" />
          </mxGeometry>
        </mxCell>
        <mxCell id="txpCUzkVClCZkRIic5J1-70" value="" style="endArrow=none;dashed=1;html=1;dashPattern=1 3;strokeWidth=2;rounded=0;exitX=0.5;exitY=0;exitDx=0;exitDy=0;" edge="1" parent="1" source="txpCUzkVClCZkRIic5J1-43">
          <mxGeometry width="50" height="50" relative="1" as="geometry">
            <mxPoint x="710" y="450" as="sourcePoint" />
            <mxPoint x="710" y="144" as="targetPoint" />
          </mxGeometry>
        </mxCell>
        <mxCell id="txpCUzkVClCZkRIic5J1-71" value="" style="endArrow=none;dashed=1;html=1;dashPattern=1 3;strokeWidth=2;rounded=0;entryX=0.5;entryY=1;entryDx=0;entryDy=0;exitX=0.5;exitY=0;exitDx=0;exitDy=0;" edge="1" parent="1" source="txpCUzkVClCZkRIic5J1-37">
          <mxGeometry width="50" height="50" relative="1" as="geometry">
            <mxPoint x="299.64" y="356" as="sourcePoint" />
            <mxPoint x="299.64" y="320" as="targetPoint" />
          </mxGeometry>
        </mxCell>
        <mxCell id="txpCUzkVClCZkRIic5J1-72" value="" style="endArrow=none;dashed=1;html=1;dashPattern=1 3;strokeWidth=2;rounded=0;entryX=0.5;entryY=1;entryDx=0;entryDy=0;exitX=0.5;exitY=0;exitDx=0;exitDy=0;" edge="1" parent="1">
          <mxGeometry width="50" height="50" relative="1" as="geometry">
            <mxPoint x="300.18" y="570" as="sourcePoint" />
            <mxPoint x="299.82" y="520" as="targetPoint" />
          </mxGeometry>
        </mxCell>
        <mxCell id="txpCUzkVClCZkRIic5J1-73" value="" style="endArrow=none;dashed=1;html=1;dashPattern=1 3;strokeWidth=2;rounded=0;entryX=0.5;entryY=1;entryDx=0;entryDy=0;exitX=0.5;exitY=0;exitDx=0;exitDy=0;" edge="1" parent="1">
          <mxGeometry width="50" height="50" relative="1" as="geometry">
            <mxPoint x="517.52" y="590" as="sourcePoint" />
            <mxPoint x="517.16" y="540" as="targetPoint" />
          </mxGeometry>
        </mxCell>
        <mxCell id="txpCUzkVClCZkRIic5J1-74" value="" style="endArrow=none;dashed=1;html=1;dashPattern=1 3;strokeWidth=2;rounded=0;entryX=0.5;entryY=1;entryDx=0;entryDy=0;exitX=0.5;exitY=0;exitDx=0;exitDy=0;" edge="1" parent="1">
          <mxGeometry width="50" height="50" relative="1" as="geometry">
            <mxPoint x="710.02" y="600" as="sourcePoint" />
            <mxPoint x="709.66" y="550" as="targetPoint" />
          </mxGeometry>
        </mxCell>
        <mxCell id="txpCUzkVClCZkRIic5J1-75" value="" style="endArrow=none;dashed=1;html=1;dashPattern=1 3;strokeWidth=2;rounded=0;entryX=0.5;entryY=1;entryDx=0;entryDy=0;exitX=0.5;exitY=0;exitDx=0;exitDy=0;" edge="1" parent="1">
          <mxGeometry width="50" height="50" relative="1" as="geometry">
            <mxPoint x="135.02" y="570" as="sourcePoint" />
            <mxPoint x="134.66" y="520" as="targetPoint" />
          </mxGeometry>
        </mxCell>
        <mxCell id="txpCUzkVClCZkRIic5J1-76" value="" style="endArrow=none;dashed=1;html=1;dashPattern=1 3;strokeWidth=2;rounded=0;" edge="1" parent="1">
          <mxGeometry width="50" height="50" relative="1" as="geometry">
            <mxPoint x="134.81" y="370" as="sourcePoint" />
            <mxPoint x="134.81" y="340" as="targetPoint" />
            <Array as="points">
              <mxPoint x="134.81" y="360" />
            </Array>
          </mxGeometry>
        </mxCell>
        <mxCell id="txpCUzkVClCZkRIic5J1-79" value="" style="endArrow=none;dashed=1;html=1;dashPattern=1 3;strokeWidth=2;rounded=0;entryX=0.25;entryY=1;entryDx=0;entryDy=0;exitX=0.471;exitY=-0.015;exitDx=0;exitDy=0;exitPerimeter=0;" edge="1" parent="1" source="txpCUzkVClCZkRIic5J1-40">
          <mxGeometry width="50" height="50" relative="1" as="geometry">
            <mxPoint x="523.36" y="400" as="sourcePoint" />
            <mxPoint x="520" y="310" as="targetPoint" />
            <Array as="points" />
          </mxGeometry>
        </mxCell>
      </root>
    </mxGraphModel>
  </diagram>
</mxfile>
